<svg aria-hidden="true" style="position: absolute; width: 0; height: 0; overflow: hidden;" version="1.1" xmlns="http://www.w3.org/2000/svg" xmlns:xlink="http://www.w3.org/1999/xlink">
<defs>
<symbol id="icon-iconfacebook_fotter" viewBox="0 0 16 32">
<path fill="#fff" style="fill: var(--color1, #fff)" d="M14.143 15.971h-4.033v14.865h-6.112v-14.865h-2.906v-5.222h2.906v-3.382c0-2.417 1.142-6.204 6.167-6.204l4.527 0.019v5.072h-3.284c-0.538 0-1.297 0.272-1.297 1.425v3.073h4.567l-0.534 5.219z"></path>
</symbol>
<symbol id="icon-icontelegram_fotter" viewBox="0 0 44 32">
<path fill="#fff" style="fill: var(--color1, #fff)" d="M17.344 21.048l-0.676 8.86c0.966 0 1.384-0.388 1.886-0.852l4.526-4.040 9.38 6.414c1.722 0.894 2.934 0.422 3.4-1.478l6.156-26.932c0.548-2.374-0.92-3.302-2.594-2.72l-36.194 12.934c-2.47 0.896-2.434 2.18-0.42 2.766l9.252 2.684 21.492-12.552c1.012-0.626 1.932-0.28 1.176 0.346l-17.386 14.57z"></path>
</symbol>
<symbol id="icon-icon1github__fotter" viewBox="0 0 32 32">
<path fill="#fff" style="fill: var(--color1, #fff)" d="M16 0c-8.789 0-16 7.211-16 16 0 7.499 5.262 14.312 12.25 16v-5.293c-0.276 0.070-0.593 0.109-0.919 0.109-0.398 0-0.781-0.059-1.143-0.169l0.028 0.007c-0.946-0.278-1.714-0.909-2.285-1.869-0.363-0.613-1.008-1.28-1.68-1.23l-0.165-1.867c1.454-0.125 2.71 0.886 3.456 2.139 0.333 0.558 0.715 0.885 1.205 1.029 0.472 0.141 0.981 0.074 1.573-0.136 0.149-1.186 0.693-1.629 1.104-2.256-4.168-0.621-5.829-2.832-6.488-4.576-0.874-2.318-0.405-5.213 1.139-7.043 0.030-0.035 0.085-0.128 0.064-0.192-0.709-2.141 0.154-3.91 0.186-4.098 0.818 0.24 0.95-0.243 3.552 1.336l0.448 0.27c0.189 0.112 0.128 0.048 0.317 0.032 1.003-0.282 2.157-0.452 3.349-0.469l0.010-0c1.136 0.014 2.272 0.176 3.403 0.483l0.146 0.016c-0.013-0.003 0.040-0.010 0.128-0.062 3.248-1.968 3.131-1.325 4.003-1.608 0.032 0.189 0.882 1.987 0.182 4.099-0.096 0.291 2.816 2.957 1.202 7.235-0.659 1.744-2.32 3.957-6.486 4.578 0.534 0.816 1.176 1.248 1.173 2.928v6.606c6.986-1.688 12.25-8.501 12.25-16 0-8.789-7.211-16-16-16z"></path>
</symbol>
<symbol id="icon-iconhome_main_testimonials" viewBox="0 0 35 32">
<path fill="#d31342" style="fill: var(--color2, #d31342)" d="M34.473 15.38c0.269-0.269 0.435-0.64 0.435-1.049 0-0.474-0.222-0.896-0.568-1.168l-0.003-0.002-15.601-12.736c-0.342-0.265-0.777-0.425-1.25-0.425-0.489 0-0.938 0.171-1.291 0.457l0.004-0.003-15.654 13.382c-0.334 0.272-0.546 0.683-0.546 1.144 0 0.426 0.181 0.809 0.469 1.078l0.001 0.001 0.393 0.378c0.649 0.634 1.702 0.71 2.348 0.169l1.169-0.977v14.31c0 0.876 0.765 1.588 1.705 1.588h6.1c0.943 0 1.705-0.713 1.705-1.588v-10.010h7.782v10.007c-0 0.012-0 0.025-0 0.039 0 0.856 0.694 1.551 1.551 1.551 0.018 0 0.035-0 0.052-0.001l-0.003 0h6.467c0.94 0 1.702-0.71 1.702-1.588v-14.103s0.326 0.262 0.724 0.591c0.396 0.326 1.233 0.064 1.865-0.585l0.445-0.457z"></path>
</symbol>
<symbol id="icon-comillas_main_testimonials" viewBox="0 0 43 32">
<path fill="#e1e1e1" style="fill: var(--color3, #e1e1e1)" d="M32.014 0c1.928 0 3.75 0.52 5.464 1.561s3.107 2.537 4.178 4.488c1.029 1.951 1.543 4.25 1.543 6.894s-0.643 5.225-1.928 7.74c-0.429 0.91-1.2 2.081-2.315 3.512-1.157 1.43-2.228 2.666-3.214 3.707l-4.050 4.098-2.893-4.813c2.063-1.302 3.824-2.855 5.306-4.646l0.030-0.037c1.542-1.821 2.314-3.49 2.314-5.008 0-0.781-0.171-1.41-0.514-1.886-1.5 1.084-3.172 1.626-5.014 1.626-1.328 0-2.593-0.412-3.793-1.236-1.237-0.782-2.237-1.834-2.935-3.078l-0.022-0.043c-0.771-1.258-1.157-2.558-1.157-3.902 0-1.518 0.45-2.97 1.35-4.358 0.866-1.389 2.011-2.526 3.364-3.356l0.044-0.025c1.37-0.824 2.784-1.236 4.242-1.236zM8.936 0c1.928 0 3.75 0.52 5.464 1.561s3.107 2.536 4.178 4.488c1.029 1.951 1.543 4.25 1.543 6.894 0 1.864-0.236 3.534-0.707 5.008-0.472 1.518-1.286 3.1-2.443 4.748-1.114 1.561-2.164 2.862-3.15 3.902-0.986 1.084-2.7 2.883-5.143 5.398l-2.893-4.813c2.063-1.302 3.824-2.855 5.306-4.646l0.030-0.037c1.542-1.821 2.314-3.49 2.314-5.008 0-0.781-0.172-1.41-0.514-1.886-1.5 1.084-3.172 1.626-5.014 1.626-1.328 0-2.593-0.412-3.793-1.236-1.237-0.782-2.237-1.834-2.935-3.078l-0.022-0.043c-0.771-1.258-1.157-2.558-1.157-3.902 0-1.518 0.429-2.97 1.286-4.358 0.866-1.389 2.011-2.526 3.364-3.356l0.045-0.025c1.37-0.824 2.784-1.236 4.242-1.236z"></path>
</symbol>
<symbol id="icon-Icon2_main_about" viewBox="0 0 32 32">
<path fill="#ffa5ba" style="fill: var(--color4, #ffa5ba)" d="M29.626 21.411c-1.292-0.458-2.381-0.344-3.242 0.018 0.145-0.877 0.47-1.832 1.169-2.481 0.214-0.195 0.348-0.476 0.348-0.787 0-0.588-0.477-1.065-1.065-1.065-0.283 0-0.541 0.111-0.731 0.291l0-0c-1.229 1.14-1.706 2.749-1.874 4.081-0.307-0.142-0.662-0.25-1.035-0.308l-0.023-0.003 1.89-9.83c0.012-0.061 0.019-0.13 0.019-0.202 0-0.588-0.477-1.064-1.064-1.064-0 0-0 0-0 0h-0.205c0.094-0.5 0.141-0.997 0.138-1.47-0.016-1.994-0.903-3.495-2.374-4.017-1.409-0.5-2.589-0.35-3.507 0.066 0.146-0.976 0.495-2.063 1.282-2.794 0.214-0.195 0.348-0.476 0.348-0.787 0-0.588-0.477-1.065-1.065-1.065-0.283 0-0.541 0.111-0.731 0.291l0-0c-1.32 1.226-1.815 2.966-1.981 4.387-0.735-0.348-1.644-0.526-2.709-0.33-1.094-1.571-2.612-2.295-4.090-1.941-1.451 0.348-2.358 1.115-2.9 1.962-0.41-0.899-0.712-2.001-0.452-3.036 0.018-0.073 0.028-0.157 0.028-0.244 0-0.588-0.477-1.065-1.065-1.065-0.49 0-0.903 0.331-1.027 0.781l-0.002 0.007c-0.439 1.746 0.095 3.475 0.73 4.758-1.016 0.138-2.118 0.65-3.049 1.866-0.578 0.755-0.773 1.698-0.596 2.7-0.408 0.155-0.692 0.543-0.692 0.997 0 0.071 0.007 0.14 0.020 0.207l-0.001-0.007 3.809 19.809c0.096 0.502 0.535 0.864 1.046 0.864h15.237c0.51 0 0.949-0.362 1.046-0.864l0.037-0.195c0.287 0.198 0.595 0.364 0.927 0.486 1.267 0.472 2.447 0.278 3.044 0.118 0.316 0.084 0.795 0.179 1.364 0.179 0.506 0 1.084-0.075 1.68-0.297 2.36-0.879 3.615-3.839 3.596-6.178-0.015-1.904-0.865-3.34-2.275-3.839zM22.675 12.191c-0.491 4.705-4.452 7.909-9.971 7.909s-9.481-3.204-9.971-7.909h19.942zM16.032 7.515c0.184 0.349 0.536 0.567 0.931 0.567s0.746-0.218 0.931-0.567c0.203-0.312 0.46-0.572 0.76-0.771l0.010-0.006c0.629-0.408 1.35-0.46 2.203-0.157 0.851 0.301 0.952 1.518 0.956 2.027 0.004 0.463-0.064 0.961-0.19 1.453h-7.126c0.236-1.19 0.094-2.492-0.289-3.669 0.392 0.022 0.751 0.149 1.055 0.351l-0.008-0.005c0.31 0.205 0.567 0.465 0.763 0.767l0.006 0.010zM3.077 8.724c0.55-0.719 1.183-1.069 1.933-1.069h0.002c0.57 0 1.016 0.207 1.066 0.232 0.341 0.189 0.749 0.172 1.078-0.037 0.332-0.211 0.51-0.592 0.481-0.983-0.006-0.077-0.115-1.894 1.983-2.397 0.877-0.211 1.626 0.754 1.906 1.178 0.808 1.221 1.222 3.108 0.777 4.413h-9.348c-0.141-0.443-0.179-0.943 0.122-1.336zM5.852 29.87l-2.111-10.977c0.138 0.132 0.28 0.262 0.428 0.388 2.208 1.901 5.239 2.948 8.535 2.948s6.328-1.047 8.535-2.948c0.051-0.044 0.102-0.090 0.152-0.134l-0.431 2.243c-0.020 0.006-0.040 0.013-0.061 0.020-1.411 0.5-2.261 1.935-2.276 3.839-0.010 1.165 0.297 2.483 0.898 3.622l-0.192 0.998h-13.477zM27.562 29.432c-0.943 0.351-1.881 0.017-1.916 0.004-0.114-0.046-0.246-0.073-0.384-0.073s-0.27 0.027-0.391 0.076l0.007-0.003c-0.010 0.004-0.96 0.352-1.917-0.004-1.338-0.499-2.223-2.556-2.21-4.166 0.004-0.465 0.095-1.578 0.858-1.849 0.279-0.107 0.601-0.17 0.937-0.175l0.002-0c1.107 0 1.658 0.812 1.782 1.024 0.184 0.35 0.535 0.57 0.931 0.57s0.748-0.22 0.931-0.57c0.156-0.265 0.977-1.468 2.721-0.849 0.763 0.271 0.854 1.383 0.858 1.85 0.013 1.609-0.872 3.667-2.21 4.165z"></path>
</symbol>
<symbol id="icon-Icon1_main_about" viewBox="0 0 32 32">
<path fill="#ffa5ba" style="fill: var(--color4, #ffa5ba)" d="M8.093 0.144c-0.349 0.188-0.552 0.563-0.552 1.006 0.006 0.813 0.209 1.556 0.614 2.2l0.177 0.294-0.337 0.381c-0.381 0.425-0.473 0.581-0.644 1.088-0.141 0.412-0.154 1.162-0.031 1.581 0.429 1.437 1.854 2.269 3.247 1.9 0.473-0.125 0.762-0.282 1.203-0.657l0.375-0.312 0.35 0.175c0.196 0.1 0.528 0.243 0.742 0.324l0.381 0.138v0.7c0 1.106 0.227 1.763 0.81 2.356s1.498 0.9 2.291 0.762c0.564-0.1 1.117-0.381 1.491-0.762 0.584-0.594 0.811-1.251 0.811-2.356v-0.7l0.387-0.138c0.209-0.081 0.541-0.225 0.737-0.325l0.349-0.175 0.374 0.312c0.442 0.375 0.731 0.531 1.203 0.657 1.394 0.369 2.819-0.463 3.248-1.9 0.123-0.419 0.111-1.169-0.031-1.581-0.172-0.507-0.264-0.663-0.644-1.088l-0.337-0.381 0.178-0.294c0.405-0.643 0.608-1.388 0.614-2.2 0-0.444-0.204-0.819-0.553-1.006l-0.264-0.144h-15.926l-0.264 0.144zM22.829 2.099c0 0.019-0.179 0.313-0.399 0.662-0.651 1.032-0.626 1.256 0.239 2.17 0.314 0.331 0.602 0.662 0.645 0.737 0.233 0.463-0.234 1.038-0.749 0.919-0.124-0.026-0.394-0.243-0.787-0.631-0.786-0.775-1.056-0.863-1.658-0.518-0.694 0.399-1.578 0.806-2.008 0.924-0.608 0.175-0.817 0.307-0.976 0.637-0.129 0.256-0.141 0.363-0.141 1.363 0 1.231-0.050 1.431-0.399 1.6-0.252 0.125-0.301 0.125-0.553 0-0.35-0.169-0.399-0.369-0.399-1.6 0-1-0.013-1.107-0.135-1.363-0.166-0.324-0.374-0.462-0.982-0.637-0.528-0.15-1.308-0.493-1.738-0.774-0.405-0.262-0.762-0.363-1.043-0.313-0.185 0.038-0.369 0.181-0.86 0.662-0.405 0.394-0.694 0.625-0.817 0.65-0.509 0.119-0.976-0.463-0.742-0.919 0.043-0.075 0.332-0.406 0.644-0.737 0.865-0.913 0.89-1.137 0.239-2.169-0.221-0.349-0.399-0.643-0.399-0.662 0-0.025 2.929-0.037 6.508-0.037s6.508 0.013 6.508 0.037zM6.245 13.206c-0.314 0.212-0.485 0.512-0.485 0.844 0 0.225 3.119 16.925 3.229 17.275 0.055 0.194 0.282 0.425 0.522 0.55 0.227 0.125 0.387 0.125 6.809 0.125s6.582 0 6.809-0.125c0.239-0.125 0.467-0.356 0.522-0.55 0.111-0.35 3.229-17.050 3.229-17.275 0-0.331-0.172-0.631-0.485-0.844l-0.209-0.144h-19.732l-0.209 0.144zM24.455 15.481c-0.061 0.5-0.418 1.587-0.682 2.081-1.283 2.375-3.715 3.819-6.729 3.987-2.278 0.132-4.205-0.331-5.82-1.393-0.94-0.625-1.704-1.443-2.247-2.402l-0.018-0.035c-0.307-0.544-0.712-1.713-0.774-2.238l-0.043-0.356h16.356l-0.043 0.356zM10.15 21.919c2.634 1.775 6.569 2.244 9.885 1.169 1.105-0.356 2.235-0.956 3.18-1.687 0.276-0.219 0.294-0.219 0.264-0.082-0.018 0.081-0.38 1.994-0.804 4.244s-0.78 4.156-0.798 4.232l-0.031 0.143h-11.052l-0.031-0.143c-0.019-0.075-0.374-1.981-0.798-4.232s-0.786-4.163-0.804-4.243c-0.031-0.138-0.013-0.138 0.264 0.081 0.16 0.125 0.492 0.356 0.724 0.518z"></path>
</symbol>
<symbol id="icon-Logo_nav" viewBox="0 0 127 32">
<path fill="#fff" style="fill: var(--color1, #fff)" d="M31.36 16.32c0 8.66-6.877 15.68-15.36 15.68s-15.36-7.020-15.36-15.68c0-8.66 6.877-15.68 15.36-15.68s15.36 7.020 15.36 15.68z"></path>
<path fill="#d41443" style="fill: var(--color5, #d41443)" d="M11.849 0.561c-7.405 2.243-11.849 8.074-11.849 15.442 0 6.022 3.091 11.277 8.179 13.904 2.64 1.345 3.027 0.384 0.579-1.474-1.738-1.409-2.061-2.050-2.061-4.421 0-1.666-0.386-3.011-0.966-3.524-1.158-0.961-1.288-3.46-0.128-4.357 0.45-0.384 0.901-1.666 0.965-2.819 0.323-4.228 4.895-8.201 9.467-8.201s9.144 3.972 9.466 8.201c0.064 1.153 0.515 2.435 0.966 2.819 1.158 0.897 1.030 3.396-0.129 4.357-0.579 0.513-0.966 1.858-0.966 3.524 0 2.371-0.321 3.012-2.060 4.421-2.705 2.115-1.932 2.883 1.094 1.025 4.251-2.627 7.406-8.33 7.406-13.391 0-10.124-10.561-18.325-19.964-15.506z"></path>
<path fill="#d41443" style="fill: var(--color5, #d41443)" d="M12.687 7.994c-1.16 0.513-2.125 1.154-2.125 1.538 0 0.705 3.478 1.987 5.474 1.987s5.474-1.281 5.474-1.987c0-0.768-3.993-2.499-5.603-2.499-0.644 0.064-2.125 0.448-3.22 0.961zM45.851 11.326c-0.966 0.256-1.158 1.089-1.158 5.702v5.382h4.572l-0.193-5.574c-0.193-5.83-0.451-6.28-3.22-5.51zM53.386 11.646c-2.125 1.154-2.898 2.563-2.898 5.318 0 3.78 2.061 5.574 5.86 5.318 2.576-0.192 2.833-0.385 3.027-1.987s0.064-1.73-1.932-1.602c-2.061 0.192-2.125 0.064-2.125-2.051s0.129-2.243 1.997-2.050c1.545 0.128 2.125-0.128 2.382-1.089 0.129-0.641 0-1.538-0.387-1.923-0.901-0.897-4.25-0.897-5.924 0.064zM61.050 11.71c-0.194 0.513-0.258 3.012-0.129 5.638l0.193 4.742h4.186c3.864 0 4.186-0.128 4.379-1.474 0.193-1.217-0.064-1.409-2.060-1.409-1.288 0-2.319-0.32-2.319-0.641 0-0.385 0.902-0.641 1.932-0.641 1.481 0 1.932-0.256 1.932-1.281s-0.451-1.281-1.932-1.281c-1.030 0-1.932-0.32-1.932-0.641 0-0.385 0.837-0.641 1.868-0.641 1.804 0 3.027-1.409 2.254-2.627-0.58-0.961-7.985-0.705-8.371 0.256zM73.993 11.518c-2.125 0.833-2.962 2.307-3.027 4.998-0.065 4.613 1.803 6.215 6.633 5.766 1.868-0.128 2.189-0.448 2.189-1.794 0-1.409-0.257-1.602-2.061-1.409-1.546 0.128-2.125-0.064-2.447-1.089-0.58-1.987 0.644-3.588 2.705-3.588 1.224 0 1.868-0.384 1.996-1.217 0.451-2.051-2.833-3.011-5.989-1.666zM81.914 11.262c-0.323 0.256-0.515 2.883-0.515 5.83v5.382l2.060-0.192c1.61-0.128 2.19-0.577 2.512-1.795l0.386-1.602 0.515 1.73c0.387 1.474 0.837 1.795 2.512 1.795 2.769 0 3.091-0.449 1.932-2.691-0.708-1.41-0.837-2.115-0.322-2.627 0.837-0.833 0.902-3.652 0.129-4.87-0.644-1.025-8.371-1.858-9.208-0.961zM87.194 14.722c0 0.705-0.257 1.281-0.644 1.281-0.322 0-0.644-0.576-0.644-1.281s0.322-1.282 0.644-1.282c0.387 0 0.644 0.577 0.644 1.282zM93.441 11.326c-0.258 0.192-0.451 2.819-0.451 5.766v5.318h4.186c4.057 0 4.186-0.064 4.186-1.602 0-1.346-0.322-1.602-1.932-1.602-1.030 0-1.932-0.32-1.932-0.641 0-0.385 0.708-0.641 1.61-0.641 1.159 0 1.61-0.321 1.61-1.282s-0.451-1.281-1.61-1.281c-0.902 0-1.61-0.32-1.61-0.641 0-0.384 0.902-0.641 1.932-0.641 1.61 0 1.932-0.256 1.932-1.602 0-1.538-0.193-1.602-3.735-1.602-2.061 0-3.992 0.192-4.186 0.448zM106.45 11.262c-1.16 0.32-4.122 8.842-3.542 10.252 0.515 1.281 3.413 1.153 4.186-0.192 0.579-1.089 0.644-1.089 1.803 0 1.482 1.281 4.701 1.474 4.701 0.256 0-0.384-0.644-2.947-1.482-5.574-1.288-4.228-1.674-4.805-3.027-4.933-0.902 0-2.061 0.064-2.64 0.192zM108.253 17.092c-0.193 0.641-0.322 0.256-0.322-0.769 0-1.089 0.129-1.538 0.322-1.153 0.129 0.448 0.129 1.345 0 1.922zM115.723 11.326c-0.58 0.192-0.837 1.986-0.837 5.702v5.382h1.868c1.61 0 1.932-0.321 2.189-1.795 0.257-1.666 0.257-1.666 0.772-0.32 0.258 0.833 0.902 1.474 1.352 1.474 0.515 0 1.224-0.641 1.546-1.474 0.515-1.346 0.58-1.346 0.58 0.384 0.065 1.602 0.257 1.795 2.061 1.602l1.996-0.192 0.065-5.318c0.129-4.933 0.064-5.318-1.288-5.638-2.061-0.512-3.799 0.705-4.379 3.076l-0.451 2.115-0.708-2.243c-0.902-3.012-2.254-3.78-4.765-2.755zM9.016 11.967c-0.193 0.256-0.387 1.089-0.387 1.922 0 1.474 0.064 1.474 7.406 1.474 7.341 0 7.405 0 7.405-1.474 0-2.179-0.579-2.435-2.64-1.409-2.319 1.217-7.213 1.217-9.531 0-1.030-0.513-1.997-0.705-2.254-0.513zM7.148 17.669c-1.030 1.089 0.708 1.538 5.731 1.538h5.409v2.243c0 1.217 0.322 2.243 0.644 2.243 0.386 0 0.644-0.961 0.644-2.179 0-2.115 0.129-2.243 2.576-2.435 1.416-0.128 2.576-0.512 2.576-0.832 0-0.705-16.872-1.282-17.581-0.577z"></path>
<path fill="#d41443" style="fill: var(--color5, #d41443)" d="M8.629 23.308c0 3.524 1.224 4.229 7.406 4.229s7.405-0.705 7.405-4.229c0-1.538-0.322-2.179-0.966-2.179-0.579 0-0.965 0.577-0.965 1.538 0 3.588-4.895 3.908-5.603 0.384-0.322-1.858-0.515-1.922-3.799-1.922h-3.478v2.179zM12.622 30.548c0.387 2.051 6.955 1.859 6.955-0.128 0-0.705-0.837-0.961-3.606-0.961-3.027 0-3.542 0.192-3.348 1.089z"></path>
</symbol>
<symbol id="Group-23" viewBox="0 0 39 32">
<path fill="#fff" style="fill: var(--color1, #fff)" d="M38.737 6.316c0 3.488-2.828 6.316-6.316 6.316s-6.316-2.828-6.316-6.316c0-3.488 2.828-6.316 6.316-6.316s6.316 2.828 6.316 6.316z"></path>
<path fill="#d41443" style="fill: var(--color2, #d41443)" d="M8.601 11.475c-0.362 0-0.678-0.426-0.949-1.278-0.258-0.852-0.387-1.672-0.387-2.46 0-0.181 0.2-0.381 0.6-0.6 0.4-0.232 1.007-0.439 1.821-0.62s1.698-0.271 2.653-0.271c3.706 0 5.559 1.298 5.559 3.893 0 0.723-0.155 1.401-0.465 2.034s-0.652 1.143-1.027 1.53c-0.375 0.375-0.813 0.723-1.317 1.046-0.581 0.362-1.136 0.645-1.666 0.852h3.874c0.077 0 0.161 0.039 0.252 0.116 0.091 0.064 0.187 0.271 0.291 0.62 0.103 0.336 0.155 0.762 0.155 1.278 0 0.504-0.032 0.93-0.097 1.278-0.064 0.336-0.142 0.581-0.232 0.736-0.194 0.349-0.368 0.536-0.523 0.562l-0.097 0.019h-8.483c-0.813 0-1.22-1.272-1.22-3.816 0-0.284 0.839-1.065 2.518-2.344 0.646-0.476 1.215-0.978 1.738-1.525l0.005-0.005c0.529-0.555 0.794-1.007 0.794-1.356 0-0.387-0.291-0.581-0.872-0.581s-1.195 0.149-1.84 0.445c-0.633 0.297-0.994 0.445-1.085 0.445zM30.395 9.868c0 1.304-0.517 2.279-1.549 2.925 0.142 0.064 0.323 0.219 0.542 0.465 0.211 0.219 0.402 0.46 0.57 0.717l0.011 0.019c0.4 0.633 0.6 1.381 0.6 2.247 0 1.42-0.51 2.466-1.53 3.138s-2.421 1.007-4.203 1.007c-0.878 0-1.711-0.071-2.499-0.213-0.775-0.155-1.368-0.323-1.782-0.504-0.413-0.194-0.62-0.368-0.62-0.523 0-0.71 0.077-1.336 0.232-1.879s0.329-0.923 0.523-1.143c0.194-0.232 0.381-0.349 0.562-0.349 0.051 0 0.394 0.116 1.027 0.349s1.252 0.349 1.859 0.349c0.62 0 0.93-0.194 0.93-0.581 0-0.529-0.652-0.813-1.956-0.852-0.517-0.013-0.801-0.026-0.852-0.039-0.271-0.091-0.407-0.659-0.407-1.704s0.136-1.621 0.407-1.724c0.051-0.026 0.336-0.039 0.852-0.039 1.304-0.026 1.956-0.291 1.956-0.794 0-0.387-0.284-0.581-0.852-0.581-0.555 0-1.175 0.136-1.859 0.407s-1.059 0.407-1.123 0.407c-0.297 0-0.568-0.432-0.813-1.298s-0.368-1.478-0.368-1.84c0-0.336 0.375-0.678 1.123-1.027 0.826-0.375 2.040-0.562 3.641-0.562 3.719 0 5.578 1.207 5.578 3.622z"></path>
<path fill="#fff" style="fill: var(--color1, #fff)" d="M0.736 30.316v-2.505h-0.442v-0.419h0.442v-0.507c0-0.283 0.071-0.489 0.212-0.619s0.348-0.195 0.619-0.195h0.295v0.424h-0.218c-0.149 0-0.255 0.032-0.318 0.094-0.063 0.059-0.094 0.161-0.094 0.307v0.495h0.719v0.419h-0.719v2.505h-0.495zM3.757 30.387c-0.275 0-0.523-0.063-0.743-0.189-0.221-0.128-0.399-0.308-0.521-0.524l-0.004-0.007c-0.126-0.232-0.189-0.503-0.189-0.813s0.065-0.58 0.195-0.808c0.13-0.232 0.304-0.411 0.525-0.536 0.21-0.119 0.462-0.189 0.729-0.189 0.007 0 0.014 0 0.021 0h-0.001c0.275 0 0.523 0.063 0.743 0.189s0.393 0.304 0.519 0.536c0.13 0.228 0.195 0.497 0.195 0.808s-0.065 0.581-0.195 0.813c-0.127 0.224-0.307 0.404-0.524 0.527l-0.007 0.004c-0.207 0.119-0.456 0.189-0.721 0.189-0.008 0-0.015-0-0.023-0h0.001zM3.757 29.962c0.169 0 0.326-0.041 0.472-0.124s0.263-0.206 0.354-0.371c0.091-0.165 0.136-0.369 0.136-0.613s-0.045-0.448-0.136-0.613c-0.079-0.157-0.198-0.283-0.344-0.369l-0.004-0.002c-0.133-0.078-0.293-0.124-0.463-0.124-0.001 0-0.002 0-0.003 0h0c-0.169 0-0.326 0.041-0.472 0.124s-0.263 0.206-0.354 0.371c-0.091 0.165-0.136 0.369-0.136 0.613s0.045 0.448 0.136 0.613c0.091 0.165 0.206 0.289 0.348 0.371 0.145 0.083 0.301 0.124 0.466 0.124zM7.245 30.387c-0.275 0-0.523-0.063-0.743-0.189-0.221-0.128-0.399-0.308-0.521-0.524l-0.004-0.007c-0.126-0.232-0.189-0.503-0.189-0.813s0.065-0.58 0.195-0.808c0.13-0.232 0.304-0.411 0.525-0.536 0.21-0.119 0.462-0.189 0.729-0.189 0.007 0 0.014 0 0.021 0h-0.001c0.275 0 0.523 0.063 0.743 0.189s0.393 0.304 0.519 0.536c0.13 0.228 0.195 0.497 0.195 0.808s-0.065 0.581-0.195 0.813c-0.127 0.224-0.307 0.404-0.524 0.527l-0.007 0.004c-0.207 0.119-0.456 0.189-0.721 0.189-0.008 0-0.016-0-0.023-0h0.001zM7.245 29.962c0.169 0 0.326-0.041 0.472-0.124s0.263-0.206 0.354-0.371 0.136-0.369 0.136-0.613-0.045-0.448-0.136-0.613c-0.079-0.157-0.198-0.283-0.344-0.369l-0.004-0.002c-0.133-0.078-0.293-0.124-0.463-0.124-0.001 0-0.002 0-0.003 0h0c-0.169 0-0.326 0.041-0.472 0.124s-0.263 0.206-0.354 0.371c-0.090 0.165-0.136 0.369-0.136 0.613s0.045 0.448 0.136 0.613c0.091 0.165 0.206 0.289 0.348 0.371 0.146 0.083 0.301 0.124 0.466 0.124zM10.728 30.387c-0.291 0-0.546-0.067-0.766-0.2-0.216-0.135-0.388-0.32-0.503-0.541l-0.004-0.008c-0.118-0.232-0.177-0.495-0.177-0.79s0.061-0.556 0.183-0.784c0.122-0.232 0.291-0.413 0.507-0.542 0.216-0.133 0.472-0.2 0.766-0.2 0.24 0 0.452 0.049 0.637 0.147s0.328 0.236 0.43 0.413v-1.81h0.495v4.244h-0.448l-0.047-0.483c-0.094 0.141-0.23 0.269-0.407 0.383s-0.399 0.171-0.666 0.171zM10.781 29.956c0.197 0 0.37-0.045 0.519-0.136 0.153-0.094 0.271-0.224 0.354-0.389 0.087-0.165 0.13-0.358 0.13-0.578s-0.043-0.413-0.13-0.578c-0.080-0.161-0.201-0.292-0.35-0.381l-0.004-0.002c-0.142-0.089-0.314-0.142-0.499-0.142-0.007 0-0.014 0-0.020 0l0.001-0c-0.192 0-0.365 0.047-0.519 0.141-0.151 0.093-0.272 0.223-0.351 0.378l-0.002 0.005c-0.083 0.165-0.124 0.358-0.124 0.578s0.041 0.413 0.124 0.578c0.087 0.165 0.205 0.295 0.354 0.389 0.153 0.091 0.326 0.136 0.519 0.136zM15.819 30.316c-0.267 0-0.477-0.065-0.631-0.195s-0.23-0.363-0.23-0.701v-1.609h-0.507v-0.419h0.507l0.065-0.701h0.43v0.701h0.861v0.419h-0.861v1.609c0 0.185 0.037 0.31 0.112 0.377 0.075 0.063 0.206 0.094 0.395 0.094h0.307v0.424h-0.448zM16.943 30.316v-2.924h0.448l0.041 0.56c0.091-0.192 0.228-0.346 0.413-0.46s0.413-0.171 0.684-0.171v0.519h-0.136c-0.173 0-0.332 0.032-0.477 0.094-0.145 0.059-0.261 0.161-0.348 0.307s-0.13 0.346-0.13 0.601v1.474h-0.495zM21.643 27.392v2.924h-0.448l-0.029-0.525c-0.093 0.183-0.232 0.331-0.402 0.434l-0.005 0.003c-0.177 0.106-0.377 0.159-0.601 0.159-0.346 0-0.623-0.104-0.831-0.312-0.204-0.212-0.307-0.536-0.307-0.973v-1.709h0.495v1.656c0 0.609 0.252 0.914 0.755 0.914 0.252 0 0.46-0.091 0.625-0.271 0.169-0.185 0.253-0.446 0.253-0.784v-1.515h0.495zM23.802 30.387c-0.279 0-0.531-0.063-0.755-0.189-0.22-0.131-0.398-0.313-0.521-0.529l-0.004-0.007c-0.126-0.232-0.189-0.501-0.189-0.808s0.063-0.574 0.189-0.802c0.13-0.232 0.304-0.411 0.525-0.536 0.211-0.122 0.463-0.195 0.733-0.195 0.008 0 0.015 0 0.023 0h-0.001c0.346 0 0.637 0.091 0.872 0.271 0.24 0.181 0.391 0.422 0.454 0.725h-0.507c-0.036-0.178-0.141-0.326-0.286-0.417l-0.003-0.002c-0.153-0.102-0.332-0.153-0.536-0.153-0.165 0-0.32 0.041-0.466 0.124s-0.263 0.206-0.354 0.371-0.136 0.369-0.136 0.613 0.045 0.448 0.136 0.613c0.091 0.165 0.208 0.291 0.354 0.377 0.145 0.083 0.301 0.124 0.466 0.124 0.204 0 0.383-0.049 0.536-0.147 0.153-0.102 0.25-0.245 0.289-0.43h0.507c-0.057 0.296-0.219 0.546-0.445 0.717l-0.003 0.002c-0.24 0.185-0.533 0.277-0.878 0.277zM25.819 30.316v-4.244h0.496v2.552l1.197-1.232h0.607l-1.297 1.32 1.463 1.603h-0.631l-1.338-1.515v1.515h-0.495zM29.737 30.387c-0.349 0-0.64-0.088-0.872-0.265s-0.368-0.417-0.407-0.719h0.507c0.032 0.153 0.112 0.287 0.242 0.401 0.133 0.11 0.312 0.165 0.536 0.165 0.208 0 0.362-0.043 0.46-0.13 0.098-0.091 0.147-0.197 0.147-0.318 0-0.177-0.065-0.295-0.195-0.354-0.126-0.059-0.304-0.112-0.536-0.159-0.182-0.037-0.34-0.084-0.492-0.143l0.021 0.007c-0.154-0.056-0.286-0.141-0.395-0.248l0 0c-0.106-0.11-0.159-0.253-0.159-0.43 0-0.256 0.094-0.464 0.283-0.625 0.192-0.165 0.452-0.248 0.778-0.248 0.31 0 0.564 0.079 0.76 0.236 0.2 0.153 0.316 0.373 0.348 0.66h-0.489c-0.020-0.149-0.084-0.265-0.195-0.348-0.106-0.086-0.25-0.13-0.43-0.13-0.177 0-0.315 0.037-0.413 0.112-0.086 0.066-0.142 0.169-0.142 0.285 0 0.003 0 0.007 0 0.010v-0c0 0.118 0.061 0.211 0.183 0.277 0.126 0.067 0.295 0.124 0.507 0.171 0.181 0.039 0.352 0.088 0.513 0.147 0.165 0.055 0.299 0.139 0.401 0.253 0.106 0.11 0.159 0.271 0.159 0.483 0.004 0.263-0.096 0.481-0.301 0.654-0.2 0.169-0.474 0.253-0.819 0.253z"></path>
</symbol>
<symbol id="gGroup-16" viewBox="0 0 30 32">
<path fill="#fff" style="fill: var(--color1, #fff)" d="M29.922 6.234c0 3.443-2.791 6.234-6.234 6.234s-6.234-2.791-6.234-6.234c0-3.443 2.791-6.234 6.234-6.234s6.234 2.791 6.234 6.234z"></path>
<path fill="#d41443" style="fill: var(--color2, #d41443)" d="M8.252 19.905c0 0.14-0.389 0.255-1.166 0.344-0.777 0.076-1.555 0.115-2.332 0.115s-1.281-0.032-1.51-0.096c-0.217-0.076-0.325-0.197-0.325-0.363v-8.258h-1.95c-0.217 0-0.325-0.465-0.325-1.396s0.108-1.772 0.325-2.523c0.064-0.242 0.739-0.465 2.026-0.669s2.275-0.306 2.963-0.306 1.147 0.025 1.376 0.076 0.401 0.115 0.516 0.191c0.115 0.064 0.204 0.14 0.268 0.229 0.089 0.14 0.134 0.274 0.134 0.401v12.254zM15.691 12.010c0.115-0.102 0.421-0.236 0.918-0.401s1.058-0.249 1.682-0.249c0.637 0 1.172 0.096 1.606 0.287 0.446 0.179 0.79 0.408 1.032 0.688 0.255 0.281 0.453 0.631 0.593 1.051 0.229 0.688 0.344 1.389 0.344 2.103s-0.032 1.255-0.096 1.625c-0.051 0.357-0.191 0.758-0.421 1.204-0.219 0.449-0.522 0.826-0.892 1.123l-0.006 0.005c-0.37 0.306-0.905 0.567-1.606 0.784-0.688 0.204-1.497 0.306-2.428 0.306-2.001 0-3.511-0.548-4.531-1.644-1.019-1.109-1.529-2.893-1.529-5.353 0-2.473 0.478-4.25 1.434-5.334 0.956-1.096 2.409-1.644 4.359-1.644 1.338 0 2.498 0.102 3.479 0.306 0.994 0.191 1.491 0.421 1.491 0.688 0 0.331-0.128 0.911-0.382 1.74-0.242 0.828-0.465 1.243-0.669 1.243-0.064 0-0.255-0.032-0.573-0.096-0.866-0.179-1.657-0.268-2.37-0.268s-1.172 0.179-1.376 0.535c-0.204 0.344-0.306 0.854-0.306 1.529 0.051-0.064 0.134-0.14 0.249-0.229zM16.112 13.73c-0.37 0-0.554 0.688-0.554 2.065 0 1.364 0.185 2.045 0.554 2.045 0.395 0 0.593-0.682 0.593-2.046 0-1.376-0.197-2.065-0.593-2.065z"></path>
<path fill="#fff" style="fill: var(--color1, #fff)" d="M9.658 30.407c-0.276 0-0.524-0.062-0.745-0.186-0.217-0.129-0.393-0.309-0.514-0.522l-0.004-0.007c-0.124-0.229-0.186-0.495-0.186-0.797s0.062-0.566 0.186-0.791c0.128-0.229 0.3-0.405 0.518-0.529 0.208-0.121 0.457-0.192 0.724-0.192 0.007 0 0.015 0 0.022 0h-0.001c0.341 0 0.628 0.089 0.861 0.268 0.237 0.179 0.386 0.417 0.448 0.716h-0.5c-0.035-0.175-0.14-0.321-0.283-0.412l-0.003-0.002c-0.151-0.101-0.328-0.151-0.529-0.151-0.163 0-0.316 0.041-0.46 0.122s-0.26 0.204-0.349 0.367-0.134 0.364-0.134 0.605 0.044 0.442 0.134 0.605c0.089 0.163 0.206 0.287 0.349 0.372 0.143 0.081 0.297 0.122 0.46 0.122 0.202 0 0.378-0.049 0.529-0.145 0.151-0.101 0.246-0.242 0.285-0.425h0.5c-0.057 0.292-0.216 0.539-0.439 0.708l-0.003 0.002c-0.237 0.182-0.526 0.273-0.867 0.273zM12.61 30.407c-0.24 0-0.44-0.041-0.599-0.122s-0.277-0.19-0.355-0.326c-0.073-0.125-0.116-0.276-0.116-0.436 0-0.002 0-0.004 0-0.006v0c0-0.295 0.113-0.522 0.337-0.681s0.532-0.239 0.919-0.239h0.78v-0.035c0-0.252-0.066-0.442-0.198-0.57-0.132-0.132-0.308-0.198-0.529-0.198-0.19 0-0.355 0.049-0.495 0.145-0.135 0.093-0.221 0.231-0.256 0.413h-0.5c0.020-0.209 0.089-0.386 0.209-0.529 0.123-0.141 0.277-0.252 0.452-0.323l0.008-0.003c0.183-0.078 0.377-0.116 0.582-0.116 0.404 0 0.707 0.108 0.908 0.326 0.206 0.213 0.308 0.499 0.308 0.855v1.775h-0.436l-0.029-0.518c-0.087 0.17-0.209 0.31-0.357 0.417l-0.003 0.002c-0.155 0.112-0.364 0.169-0.628 0.169zM12.685 29.994c0.186 0 0.345-0.049 0.477-0.145 0.136-0.097 0.239-0.223 0.308-0.378s0.105-0.318 0.105-0.489v-0.006h-0.739c-0.287 0-0.49 0.050-0.611 0.151-0.107 0.084-0.175 0.214-0.175 0.359 0 0.003 0 0.005 0 0.008v-0c0 0.151 0.054 0.273 0.163 0.367 0.113 0.089 0.27 0.134 0.471 0.134zM14.954 30.338v-2.473h-0.436v-0.413h0.436v-0.5c0-0.279 0.070-0.483 0.21-0.611s0.343-0.192 0.611-0.192h0.291v0.419h-0.215c-0.148 0-0.252 0.031-0.314 0.093-0.062 0.058-0.093 0.159-0.093 0.303v0.489h0.71v0.413h-0.71v2.473h-0.489zM17.919 30.407c-0.275 0-0.519-0.062-0.733-0.186-0.214-0.13-0.385-0.309-0.503-0.522l-0.004-0.007c-0.12-0.225-0.18-0.49-0.18-0.797 0-0.303 0.060-0.566 0.18-0.791 0.121-0.229 0.287-0.405 0.5-0.529 0.217-0.128 0.468-0.192 0.751-0.192 0.279 0 0.52 0.064 0.721 0.192 0.206 0.124 0.363 0.289 0.471 0.495 0.103 0.19 0.164 0.416 0.164 0.656 0 0.047-0.002 0.094-0.007 0.141l0-0.006v0.145h-2.298c0.012 0.221 0.062 0.405 0.151 0.553 0.093 0.143 0.208 0.252 0.343 0.326 0.14 0.074 0.287 0.111 0.442 0.111 0.202 0 0.371-0.047 0.506-0.14s0.235-0.219 0.297-0.378h0.483c-0.079 0.272-0.236 0.501-0.445 0.667l-0.003 0.002c-0.217 0.175-0.496 0.262-0.838 0.262zM17.919 27.795c-0.233 0-0.44 0.072-0.623 0.215-0.178 0.14-0.281 0.345-0.308 0.617h1.815c-0.012-0.26-0.101-0.463-0.268-0.611s-0.372-0.221-0.617-0.221zM21.039 30.407c-0.345 0-0.632-0.087-0.861-0.262s-0.363-0.411-0.401-0.71h0.5c0.031 0.151 0.111 0.283 0.239 0.396 0.132 0.108 0.308 0.163 0.529 0.163 0.206 0 0.357-0.043 0.454-0.128 0.097-0.089 0.145-0.194 0.145-0.314 0-0.175-0.064-0.291-0.192-0.349-0.124-0.058-0.3-0.111-0.529-0.157-0.18-0.037-0.336-0.083-0.486-0.141l0.021 0.007c-0.152-0.056-0.282-0.139-0.39-0.245l0 0c-0.105-0.108-0.157-0.25-0.157-0.425 0-0.252 0.093-0.458 0.279-0.617 0.19-0.163 0.446-0.244 0.768-0.244 0.306 0 0.557 0.078 0.751 0.233 0.198 0.151 0.312 0.369 0.343 0.652h-0.483c-0.020-0.148-0.083-0.262-0.192-0.343-0.105-0.085-0.246-0.128-0.425-0.128-0.175 0-0.31 0.037-0.407 0.111-0.085 0.065-0.14 0.167-0.14 0.281 0 0.003 0 0.007 0 0.010v-0c0 0.116 0.060 0.208 0.18 0.273 0.124 0.066 0.291 0.122 0.5 0.169 0.179 0.039 0.347 0.087 0.506 0.145 0.163 0.054 0.295 0.138 0.396 0.25 0.105 0.108 0.157 0.268 0.157 0.477 0.004 0.26-0.095 0.475-0.297 0.646-0.198 0.167-0.468 0.25-0.809 0.25z"></path>
</symbol>
<symbol id="icon-buynow" viewBox="0 0 19 32">
<path fill="none" stroke="#d41443" style="stroke: var(--color1, #d41443)" stroke-linejoin="round" stroke-linecap="round" stroke-miterlimit="4" stroke-width="6.4" d="M3.2 3.2l12.8 12.8-12.8 12.8"></path>
</symbol>
</defs>
</svg>
